<svg xmlns="http://www.w3.org/2000/svg" xmlns:svg="http://www.w3.org/2000/svg" xmlns:xlink="http://www.w3.org/1999/xlink" version="1.0" height="283.29411859165475pt" width="671pt" viewBox="395 592 679 289.29411859165475" ><defs><style type="text/css">
            @font-face {
                font-family: 'noto_regular';
                src: url('https://app.creately.com/diagram/assets/fonts/noto/noto-regular.woff') format('woff'),
                     url('https://app.creately.com/diagram/assets/fonts/noto/noto-regular.woff2') format('woff2');
                font-weight: normal;
                font-style: normal;
            }
        p {
            margin: 0;
        }
        </style></defs><defs><style>
            span{ display: inline-block; }
        </style></defs><g id="ft7lnr8tqf"><g transform="translate(630 665)"><path d="M 1,1 L 186.99948036670685,1 L 186.99948036670685,214.2441799616704 L 1,214.2441799616704 Z" fill="rgb(255, 255, 255)" stroke="rgb(0, 0, 0)" stroke-width="1" stroke-linecap="round" stroke-linejoin="round"/><path d="M 1,39 L 185.99948036670685,39 M 1,188.2441799616704 L 185.99948036670685,188.2441799616704" fill="rgb(255, 255, 255)" stroke="rgb(0, 0, 0)" stroke-width="1" stroke-linecap="round" stroke-linejoin="round"/></g><g transform="translate(680.4499960875851, 675.0023418519555) rotate(0, 0, 0)" width="15" height="19"><text text-decoration="none" x="0" fill="#000000" font-weight="bold" font-size="11pt" font-family="Arial"  y="15">0&#160;</text><text text-decoration="none" x="13" fill="#4b4b4b" font-size="10pt" font-family="noto_regular"  y="15"></text></g></g><g id="14zucep98n"><g transform="translate(400 595)"><rect x="0" y="0" width="101" height="101" fill="rgba(255,255,255,1)" stroke="#000000" stroke-width="1" stroke-linecap="round" stroke-linejoin="round"/></g><g transform="translate(409.5, 636) rotate(0, 41, 9.5)" width="82" height="19"><text text-decoration="none" x="3.5" fill="rgb(0, 0, 0)" font-size="9pt" font-family="Arial"  y="15">Administrator</text><text text-decoration="none" x="78.5" fill="#4b4b4b" font-size="10pt" font-family="noto_regular"  y="15"></text></g></g><g id="9c6nf0x7ts"><g transform="translate(970 670)"><rect x="0" y="0" width="101" height="101" fill="rgba(255,255,255,1)" stroke="#000000" stroke-width="1" stroke-linecap="round" stroke-linejoin="round"/></g><g transform="translate(988, 703.5) rotate(0, 32.5, 17)" width="65" height="34"><text text-decoration="none" x="2.5" fill="rgb(0, 0, 0)" font-size="9pt" font-family="Arial"  y="11">Clients(Car&#160;</text><text text-decoration="none" x="10.5" fill="rgb(0, 0, 0)" font-size="9pt" font-family="Arial"  y="30">Owners)</text><text text-decoration="none" x="54.5" fill="#4b4b4b" font-size="10pt" font-family="noto_regular"  y="30"></text></g></g><g id="1jwz5loyyh"><g transform="translate(405 765)"><rect x="0" y="0" width="101" height="101" fill="rgba(255,255,255,1)" stroke="#000000" stroke-width="1" stroke-linecap="round" stroke-linejoin="round"/></g><g transform="translate(423, 806) rotate(0, 32.5, 9.5)" width="65" height="19"><text text-decoration="none" x="3" fill="rgb(0, 0, 0)" font-size="9pt" font-family="Arial"  y="15">Employees</text><text text-decoration="none" x="62" fill="#4b4b4b" font-size="10pt" font-family="noto_regular"  y="15"></text></g></g><g id="5b7krnmlhz"><mask id="7c9f3" x="488" y="633" width="154" height="114" maskUnits="userSpaceOnUse"><rect x="488" y="633" width="154" height="114" fill="white" /><rect x="475.54999999999995" y="712.95" width="108" height="25" fill="black" /><rect x="475.54999999999995" y="712.95" width="108" height="25" fill="black" /><rect x="475.54999999999995" y="712.95" width="108" height="25" fill="black" /></mask><g mask="url(#7c9f3)"><path d="M 630,735 L 529.55,735 L 529.55,690 L 529.55,645 L 500,645" fill="none" stroke="#000000" stroke-width="1" stroke-linecap="round" stroke-linejoin="round"/><path d="M 630,735 L 638.695652173913,740.75 L 638.695652173913,729.25 Z" fill="rgb(0,0,0)" stroke="#000000" stroke-width="1" stroke-linecap="round" stroke-linejoin="round"/></g><g transform="translate(478.54999999999995, 715.95)" width="102" height="19"><text text-decoration="none" x="5" fill="rgb(0, 0, 0)" font-size="9pt" font-family="Arial"  y="15">Employee&#160;</text><text text-decoration="none" x="61" fill="rgb(0, 0, 0)" font-size="9pt" font-family="Arial"  y="15">details</text><text text-decoration="none" x="97" fill="#4b4b4b" font-size="10pt" font-family="noto_regular"  y="15"></text></g><g transform="translate(478.54999999999995, 715.95)" width="102" height="19"><text text-decoration="none" x="5" fill="rgb(0, 0, 0)" font-size="9pt" font-family="Arial"  y="15">Employee&#160;</text><text text-decoration="none" x="61" fill="rgb(0, 0, 0)" font-size="9pt" font-family="Arial"  y="15">details</text><text text-decoration="none" x="97" fill="#4b4b4b" font-size="10pt" font-family="noto_regular"  y="15"></text></g><g transform="translate(478.54999999999995, 715.95)" width="102" height="19"><text text-decoration="none" x="5" fill="rgb(0, 0, 0)" font-size="9pt" font-family="Arial"  y="15">Employee&#160;</text><text text-decoration="none" x="61" fill="rgb(0, 0, 0)" font-size="9pt" font-family="Arial"  y="15">details</text><text text-decoration="none" x="97" fill="#4b4b4b" font-size="10pt" font-family="noto_regular"  y="15"></text></g></g><g id="2lutzceo91"><mask id="bde48" x="493" y="758" width="149" height="69" maskUnits="userSpaceOnUse"><rect x="493" y="758" width="149" height="69" fill="white" /><rect x="521" y="787.9367469879518" width="93" height="25" fill="black" /></mask><g mask="url(#bde48)"><path d="M 505,815 L 567.5,815 L 567.5,792.5 L 567.5,770 L 630,770" fill="none" stroke="#000000" stroke-width="1" stroke-linecap="round" stroke-linejoin="round"/><path d="M 630,770 L 621.304347826087,764.25 L 621.304347826087,775.75 Z" fill="rgb(0,0,0)" stroke="#000000" stroke-width="1" stroke-linecap="round" stroke-linejoin="round"/></g><g transform="translate(524, 790.9367469879518)" width="87" height="19"><text text-decoration="none" x="5" fill="rgb(0, 0, 0)" font-size="9pt" font-family="Arial"  y="15">Service&#160;</text><text text-decoration="none" x="46" fill="rgb(0, 0, 0)" font-size="9pt" font-family="Arial"  y="15">details</text><text text-decoration="none" x="82" fill="#4b4b4b" font-size="10pt" font-family="noto_regular"  y="15"></text></g></g><g id="2m3iov96q6"><mask id="27fa7" x="498" y="798" width="149" height="64" maskUnits="userSpaceOnUse"><rect x="498" y="798" width="149" height="64" fill="white" /><rect x="515.5" y="803" width="100" height="40" fill="black" /><rect x="515.5" y="803" width="100" height="40" fill="black" /><rect x="515.5" y="803" width="100" height="40" fill="black" /></mask><g mask="url(#27fa7)"><path d="M 635,810 L 565.5,810 L 565.5,830 L 565.5,850 L 510,850" fill="none" stroke="#000000" stroke-width="1" stroke-linecap="round" stroke-linejoin="round"/><path d="M 510,850 L 518.695652173913,855.75 L 518.695652173913,844.25 Z" fill="rgb(0,0,0)" stroke="#000000" stroke-width="1" stroke-linecap="round" stroke-linejoin="round"/></g><g transform="translate(518.5, 806)" width="94" height="34"><text text-decoration="none" x="6.5" fill="rgb(0, 0, 0)" font-size="9pt" font-family="Arial"  y="11">Service&#160;</text><text text-decoration="none" x="47.5" fill="rgb(0, 0, 0)" font-size="9pt" font-family="Arial"  y="11">request</text><text text-decoration="none" x="87.5" fill="rgb(0, 0, 0)" font-size="9pt" font-family="Arial"  y="11"></text><text text-decoration="none" x="47" fill="#4b4b4b" font-size="10pt" font-family="noto_regular"  y="30"></text></g><g transform="translate(518.5, 806)" width="94" height="34"><text text-decoration="none" x="6.5" fill="rgb(0, 0, 0)" font-size="9pt" font-family="Arial"  y="11">Service&#160;</text><text text-decoration="none" x="47.5" fill="rgb(0, 0, 0)" font-size="9pt" font-family="Arial"  y="11">request</text><text text-decoration="none" x="87.5" fill="rgb(0, 0, 0)" font-size="9pt" font-family="Arial"  y="11"></text><text text-decoration="none" x="47" fill="#4b4b4b" font-size="10pt" font-family="noto_regular"  y="30"></text></g><g transform="translate(518.5, 806)" width="94" height="34"><text text-decoration="none" x="6.5" fill="rgb(0, 0, 0)" font-size="9pt" font-family="Arial"  y="11">Service&#160;</text><text text-decoration="none" x="47.5" fill="rgb(0, 0, 0)" font-size="9pt" font-family="Arial"  y="11">request</text><text text-decoration="none" x="87.5" fill="rgb(0, 0, 0)" font-size="9pt" font-family="Arial"  y="11"></text><text text-decoration="none" x="47" fill="#4b4b4b" font-size="10pt" font-family="noto_regular"  y="30"></text></g></g><g id="1e1v6xqgjx"><mask id="a2db8" x="808" y="698" width="174" height="34" maskUnits="userSpaceOnUse"><rect x="808" y="698" width="174" height="34" fill="white" /><rect x="841.9997401833534" y="704.5002598166466" width="102" height="25" fill="black" /><rect x="841.9997401833534" y="704.5002598166466" width="102" height="25" fill="black" /><rect x="841.9997401833534" y="704.5002598166466" width="102" height="25" fill="black" /></mask><g mask="url(#a2db8)"><path d="M 970,720 L 892.9997401833534,720 L 892.9997401833534,715 L 892.9997401833534,710 L 820,710" fill="none" stroke="#000000" stroke-width="1" stroke-linecap="round" stroke-linejoin="round"/><path d="M 820,710 L 828.695652173913,715.75 L 828.695652173913,704.25 Z" fill="rgb(0,0,0)" stroke="#000000" stroke-width="1" stroke-linecap="round" stroke-linejoin="round"/></g><g transform="translate(844.9997401833534, 707.5002598166466)" width="96" height="19"><text text-decoration="none" x="6" fill="rgb(0, 0, 0)" font-size="9pt" font-family="Arial"  y="15">Service&#160;</text><text text-decoration="none" x="47" fill="rgb(0, 0, 0)" font-size="9pt" font-family="Arial"  y="15">Request</text><text text-decoration="none" x="90" fill="#4b4b4b" font-size="10pt" font-family="noto_regular"  y="15"></text></g><g transform="translate(844.9997401833534, 707.5002598166466)" width="96" height="19"><text text-decoration="none" x="6" fill="rgb(0, 0, 0)" font-size="9pt" font-family="Arial"  y="15">Service&#160;</text><text text-decoration="none" x="47" fill="rgb(0, 0, 0)" font-size="9pt" font-family="Arial"  y="15">Request</text><text text-decoration="none" x="90" fill="#4b4b4b" font-size="10pt" font-family="noto_regular"  y="15"></text></g><g transform="translate(844.9997401833534, 707.5002598166466)" width="96" height="19"><text text-decoration="none" x="6" fill="rgb(0, 0, 0)" font-size="9pt" font-family="Arial"  y="15">Service&#160;</text><text text-decoration="none" x="47" fill="rgb(0, 0, 0)" font-size="9pt" font-family="Arial"  y="15">Request</text><text text-decoration="none" x="90" fill="#4b4b4b" font-size="10pt" font-family="noto_regular"  y="15"></text></g></g><g id="3xjt5df9gt"><mask id="78e3f" x="803" y="738" width="179" height="44" maskUnits="userSpaceOnUse"><rect x="803" y="738" width="179" height="44" fill="white" /><rect x="861.9997401833534" y="747.9997401833534" width="62" height="25" fill="black" /><rect x="861.9997401833534" y="747.9997401833534" width="62" height="25" fill="black" /><rect x="861.9997401833534" y="747.9997401833534" width="62" height="25" fill="black" /></mask><g mask="url(#78e3f)"><path d="M 815,770 L 892.9997401833534,770 L 892.9997401833534,760 L 892.9997401833534,750 L 970,750" fill="none" stroke="#000000" stroke-width="1" stroke-linecap="round" stroke-linejoin="round"/><path d="M 970,750 L 961.304347826087,744.25 L 961.304347826087,755.75 Z" fill="rgb(0,0,0)" stroke="#000000" stroke-width="1" stroke-linecap="round" stroke-linejoin="round"/></g><g transform="translate(864.9997401833534, 750.9997401833534)" width="56" height="19"><text text-decoration="none" x="2" fill="rgb(0, 0, 0)" font-size="9pt" font-family="Arial"  y="15">Response</text><text text-decoration="none" x="54" fill="#4b4b4b" font-size="10pt" font-family="noto_regular"  y="15"></text></g><g transform="translate(864.9997401833534, 750.9997401833534)" width="56" height="19"><text text-decoration="none" x="2" fill="rgb(0, 0, 0)" font-size="9pt" font-family="Arial"  y="15">Response</text><text text-decoration="none" x="54" fill="#4b4b4b" font-size="10pt" font-family="noto_regular"  y="15"></text></g><g transform="translate(864.9997401833534, 750.9997401833534)" width="56" height="19"><text text-decoration="none" x="2" fill="rgb(0, 0, 0)" font-size="9pt" font-family="Arial"  y="15">Response</text><text text-decoration="none" x="54" fill="#4b4b4b" font-size="10pt" font-family="noto_regular"  y="15"></text></g></g><g id="1vzmq29ngs"><g transform="translate(665 746)"><rect x="0" y="0" width="102" height="71" fill="rgba(255,255,255,0.01)" stroke="rgba(255,255,255,0.01)" stroke-width="NaN" stroke-linecap="round" stroke-linejoin="round"/></g><g transform="translate(670, 764.5) rotate(0, 46, 17)" width="92" height="34"><text text-decoration="none" x="15" fill="rgb(0, 0, 0)" font-size="9pt" font-family="Arial"  y="11">Online&#160;</text><text text-decoration="none" x="52" fill="rgb(0, 0, 0)" font-size="9pt" font-family="Arial"  y="11">Care&#160;</text><text text-decoration="none" x="5" fill="rgb(0, 0, 0)" font-size="9pt" font-family="Arial"  y="30">Garage&#160;</text><text text-decoration="none" x="47" fill="rgb(0, 0, 0)" font-size="9pt" font-family="Arial"  y="30">System</text><text text-decoration="none" x="87" fill="#4b4b4b" font-size="10pt" font-family="noto_regular"  y="30"></text></g></g><g id="8e7fycecw8"><mask id="0f632" x="488" y="598" width="154" height="129" maskUnits="userSpaceOnUse"><rect x="488" y="598" width="154" height="129" fill="white" /><rect x="520" y="649.5" width="91" height="25" fill="black" /><rect x="520" y="649.5" width="91" height="25" fill="black" /></mask><g mask="url(#0f632)"><path d="M 630,715 L 565.5,715 L 565.5,662.5 L 565.5,610 L 500,610" fill="none" stroke="#000000" stroke-width="1" stroke-linecap="round" stroke-linejoin="round"/></g><g transform="translate(523, 652.5)" width="85" height="19"><text text-decoration="none" x="4.5" fill="rgb(0, 0, 0)" font-size="9pt" font-family="Arial"  y="15">User&#160;</text><text text-decoration="none" x="31.5" fill="rgb(0, 0, 0)" font-size="9pt" font-family="Arial"  y="15">Requests</text><text text-decoration="none" x="80.5" fill="#4b4b4b" font-size="10pt" font-family="noto_regular"  y="15"></text></g><g transform="translate(523, 652.5)" width="85" height="19"><text text-decoration="none" x="4.5" fill="rgb(0, 0, 0)" font-size="9pt" font-family="Arial"  y="15">User&#160;</text><text text-decoration="none" x="31.5" fill="rgb(0, 0, 0)" font-size="9pt" font-family="Arial"  y="15">Requests</text><text text-decoration="none" x="80.5" fill="#4b4b4b" font-size="10pt" font-family="noto_regular"  y="15"></text></g></g><g id="16j9l4klvo"><g transform="translate(410 600)"><rect x="0" y="0" width="19" height="20.449817776679993" fill="rgba(255,255,255,0.01)" stroke="rgba(255,255,255,0.01)" stroke-width="NaN" stroke-linecap="round" stroke-linejoin="round"/></g><g transform="translate(416, 600.72490888834) rotate(0, 3.5, 9.5)" width="7" height="19"><text text-decoration="none" x="0" fill="rgb(0, 0, 0)" font-size="9pt" font-family="Arial"  y="15">a</text><text text-decoration="none" x="7" fill="#4b4b4b" font-size="10pt" font-family="noto_regular"  y="15"></text></g></g><g id="23c5xjd9jy"><g transform="translate(414 772)"><rect x="0" y="0" width="18" height="25.259817600250244" fill="rgba(255,255,255,0.01)" stroke="rgba(255,255,255,0.01)" stroke-width="NaN" stroke-linecap="round" stroke-linejoin="round"/></g><g transform="translate(419, 775.1299088001251) rotate(0, 4, 9.5)" width="8" height="19"><text text-decoration="none" x="0.5" fill="rgb(0, 0, 0)" font-size="9pt" font-family="Arial"  y="15">b</text><text text-decoration="none" x="7.5" fill="#4b4b4b" font-size="10pt" font-family="noto_regular"  y="15"></text></g></g><g id="4tuj7otr5o"><g transform="translate(975 682)"><rect x="0" y="0" width="21" height="21.01138263940811" fill="rgba(255,255,255,0.01)" stroke="rgba(255,255,255,0.01)" stroke-width="NaN" stroke-linecap="round" stroke-linejoin="round"/></g><g transform="translate(982, 683.005691319704) rotate(0, 3.5, 9.5)" width="7" height="19"><text text-decoration="none" x="0.5" fill="rgb(0, 0, 0)" font-size="9pt" font-family="Arial"  y="15">c</text><text text-decoration="none" x="6.5" fill="#4b4b4b" font-size="10pt" font-family="noto_regular"  y="15"></text></g></g></svg>