<?xml version="1.0" standalone="no"?>
<!DOCTYPE svg PUBLIC "-//W3C//DTD SVG 20010904//EN"
 "http://www.w3.org/TR/2001/REC-SVG-20010904/DTD/svg10.dtd">
<svg version="1.0" xmlns="http://www.w3.org/2000/svg"
 width="500.000000pt" height="500.000000pt" viewBox="0 0 500.000000 500.000000"
 preserveAspectRatio="xMidYMid meet">

<g transform="translate(0.000000,500.000000) scale(0.100000,-0.100000)"
fill="#000000" stroke="none">
<path d="M2185 3881 c-127 -25 -196 -47 -303 -98 -440 -208 -709 -545 -798
-999 -21 -104 -24 -429 -6 -504 6 -25 20 -81 30 -125 10 -44 22 -89 26 -100 4
-11 12 -33 18 -50 25 -73 128 -288 140 -293 4 -2 8 -8 8 -13 0 -18 80 -128
152 -210 191 -217 493 -394 783 -461 125 -28 345 -35 490 -15 157 22 341 78
471 142 129 64 244 155 429 339 109 109 126 130 168 216 61 125 134 350 148
458 13 98 8 362 -10 517 -24 202 -70 365 -138 490 -63 117 -316 379 -453 470
-121 79 -334 184 -418 205 -212 53 -550 67 -737 31z"/>
</g>
</svg>
